<?xml version="1.0" encoding="UTF-8"?>
<svg width="974.67" height="562.82" version="1.1" viewBox="0 0 974.67 562.82" xml:space="preserve" xmlns="http://www.w3.org/2000/svg" xmlns:cc="http://creativecommons.org/ns#" xmlns:dc="http://purl.org/dc/elements/1.1/" xmlns:rdf="http://www.w3.org/1999/02/22-rdf-syntax-ns#"><metadata><rdf:RDF><cc:Work rdf:about=""><dc:format>image/svg+xml</dc:format><dc:type rdf:resource="http://purl.org/dc/dcmitype/StillImage"/><dc:title/></cc:Work></rdf:RDF></metadata><defs><clipPath id="clipPath18"><path d="m0 1080h1920v-1080h-1920z"/></clipPath></defs><g transform="matrix(1.3333 0 0 -1.3333 -792.67 1001.4)"><g clip-path="url(#clipPath18)"><g transform="translate(647.02 360.52)"><path d="m0 0v-17.937h-6.685v17.937c0 6.957-2.931 10.231-8.116 10.231-5.115 0-8.116-3.274-8.116-10.231v-17.937h-6.683v17.937c0 6.957-2.933 10.231-8.116 10.231-5.115 0-8.117-3.274-8.117-10.231v-17.937h-6.683v17.937c0 11.458 6.274 16.71 14.8 16.71 4.91 0 9.207-2.046 11.458-6.343 2.25 4.297 6.547 6.343 11.457 6.343 8.526 0 14.801-5.252 14.801-16.71" fill="#fff"/></g><g transform="translate(680.29 359.63)"><path d="m0 0c0 6.208-4.569 11.118-10.843 11.118-6.276 0-10.982-4.91-10.982-11.118 0-6.205 4.774-11.116 10.982-11.116 6.205 0 10.843 4.911 10.843 11.116m-28.507 0c0 9.753 7.909 17.597 17.595 17.597 9.685 0 17.528-7.844 17.528-17.597v-17.051h-6.684v5.388c-1.637-3.341-6.001-5.933-10.844-5.933-9.686 0-17.595 7.844-17.595 17.596" fill="#fff"/></g><g transform="translate(720.18 359.63)"><path d="m0 0c0 6.208-4.57 11.118-10.845 11.118-6.274 0-10.98-4.91-10.98-11.118 0-6.205 4.774-11.116 10.98-11.116 6.207 0 10.845 4.911 10.845 11.116m-27.01-20.118h8.049c2.046-2.593 4.773-4.093 8.047-4.093 5.867 0 10.777 3.818 10.777 9.548v1.568c-2.66-2.726-6.48-4.501-10.777-4.501-9.752 0-17.596 7.844-17.596 17.596 0 9.753 7.844 17.597 17.596 17.597 9.753 0 17.597-7.844 17.597-17.597v-13.095c0-9.752-7.844-17.595-17.597-17.595-7.16 0-13.367 4.296-16.096 10.572" fill="#fff"/></g><path d="m732.72 376.68h6.683v-34.102h-6.683zm-0.75 8.797c0 2.321 1.773 4.093 4.093 4.093 2.25 0 4.024-1.772 4.024-4.093 0-2.317-1.774-4.091-4.024-4.091-2.32 0-4.093 1.774-4.093 4.091" fill="#fff"/><g transform="translate(744.86 359.63)"><path d="m0 0c0 9.753 7.842 17.597 17.596 17.597 7.501 0 13.845-4.706 16.231-11.253h-7.16c-1.911 2.863-5.115 4.774-9.002 4.774-6.276 0-10.982-4.91-10.982-11.118 0-6.205 4.774-11.116 10.982-11.116 3.819 0 6.955 1.841 8.866 4.637h7.296c-2.454-6.547-8.798-11.117-16.231-11.117-9.754 0-17.596 7.844-17.596 17.596" fill="#fff"/></g><g transform="translate(807.05 370.21)"><path d="m0 0h-5.115v6.479h5.251c0.75 8.389 5.594 13.503 13.913 13.844v-6.478c-3.954-0.409-6.955-2.865-7.228-7.366h7.228v-6.479h-7.364v-27.623h-6.685z" fill="#fff"/></g><g transform="translate(850.96 359.63)"><path d="m0 0c0 6.208-4.569 11.118-10.845 11.118-6.274 0-10.98-4.91-10.98-11.118 0-6.205 4.774-11.116 10.98-11.116 6.207 0 10.845 4.911 10.845 11.116m-28.509 0c0 9.753 7.912 17.597 17.596 17.597s17.528-7.844 17.528-17.597v-17.051h-6.683v5.388c-1.638-3.341-6.003-5.933-10.845-5.933-9.684 0-17.596 7.844-17.596 17.596" fill="#fff"/></g><g transform="translate(862.35 359.63)"><path d="m0 0c0 9.753 7.842 17.597 17.596 17.597 7.501 0 13.845-4.706 16.231-11.253h-7.16c-1.911 2.863-5.115 4.774-9.003 4.774-6.275 0-10.981-4.91-10.981-11.118 0-6.205 4.774-11.116 10.981-11.116 3.819 0 6.956 1.841 8.866 4.637h7.297c-2.454-6.547-8.798-11.117-16.231-11.117-9.754 0-17.596 7.844-17.596 17.596" fill="#fff"/></g><g transform="translate(911.1 370.21)"><path d="m0 0v-11.458c0-6.48 2.522-9.48 7.365-9.89v-6.479c-8.185 0.341-14.05 5.319-14.05 16.301v11.526h-5.046v6.479h5.046v12.208h6.685v-12.208h7.365v-6.479z" fill="#fff"/></g><g transform="translate(927.88 359.63)"><path d="m0 0c0-6.205 4.774-11.116 10.981-11.116 6.206 0 10.843 4.911 10.843 11.116 0 6.208-4.569 11.118-10.843 11.118-6.275 0-10.981-4.91-10.981-11.118m28.509 0c0-9.752-7.843-17.596-17.596-17.596-9.754 0-17.596 7.844-17.596 17.596 0 9.753 7.842 17.597 17.596 17.597 9.753 0 17.596-7.844 17.596-17.597" fill="#fff"/></g><g transform="translate(961.15 360.38)"><path d="m0 0c0 11.322 6.071 16.437 14.322 16.437h0.684v-6.478h-0.684c-4.774 0-7.637-3.069-7.637-9.959v-17.801h-6.685z" fill="#fff"/></g><g transform="translate(981.75 339.51)"><path d="m0 0h7.502c1.433-2.388 3.614-4.093 7.024-4.093 5.251 0 8.253 3.478 8.253 8.047v1.843c-1.909-2.047-4.911-3.275-8.253-3.275-8.729 0-15.004 5.251-15.004 16.71v17.937h6.683v-17.937c0-6.958 3.002-10.23 8.321-10.23 5.251 0 8.321 3.205 8.321 9.821v18.346h6.685v-32.396c0-8.729-6.276-15.345-15.006-15.345-7.024 0-12.209 4.297-14.526 10.572" fill="#fff"/></g><g transform="translate(1063.6 359.63)"><path d="m0 0c0 6.208-4.569 11.118-10.845 11.118-6.274 0-10.979-4.91-10.979-11.118 0-6.205 4.773-11.116 10.979-11.116 6.207 0 10.845 4.911 10.845 11.116m-28.509 0c0 9.753 7.911 17.597 17.596 17.597 9.684 0 17.528-7.844 17.528-17.597v-17.051h-6.683v5.388c-1.638-3.341-6.003-5.933-10.845-5.933-9.685 0-17.596 7.844-17.596 17.596" fill="#fff"/></g><g transform="translate(1105.4 342.58)"><path d="m0 0h-6.684v17.937c0 6.958-3.001 10.232-8.32 10.232-5.321 0-8.321-3.274-8.321-10.232v-17.937h-6.685v17.937c0 11.459 6.276 16.71 15.006 16.71s15.004-5.251 15.004-16.71z" fill="#fff"/></g><path d="m1111.9 376.68h6.685v-34.102h-6.685zm-0.75 8.797c0 2.321 1.774 4.093 4.092 4.093 2.252 0 4.024-1.772 4.024-4.093 0-2.317-1.772-4.091-4.024-4.091-2.318 0-4.092 1.774-4.092 4.091" fill="#fff"/><g transform="translate(1177.6 360.52)"><path d="m0 0v-17.937h-6.684v17.937c0 6.957-2.932 10.231-8.116 10.231-5.115 0-8.116-3.274-8.116-10.231v-17.937h-6.685v17.937c0 6.957-2.931 10.231-8.114 10.231-5.117 0-8.116-3.274-8.116-10.231v-17.937h-6.685v17.937c0 11.458 6.276 16.71 14.801 16.71 4.91 0 9.207-2.046 11.457-6.343 2.251 4.297 6.548 6.343 11.458 6.343 8.526 0 14.8-5.252 14.8-16.71" fill="#fff"/></g><g transform="translate(1210.9 359.63)"><path d="m0 0c0 6.208-4.569 11.118-10.845 11.118-6.273 0-10.979-4.91-10.979-11.118 0-6.205 4.773-11.116 10.979-11.116 6.207 0 10.845 4.911 10.845 11.116m-28.509 0c0 9.753 7.911 17.597 17.596 17.597 9.684 0 17.528-7.844 17.528-17.597v-17.051h-6.682v5.388c-1.639-3.341-6.003-5.933-10.846-5.933-9.685 0-17.596 7.844-17.596 17.596" fill="#fff"/></g><g transform="translate(1230.6 370.21)"><path d="m0 0v-11.458c0-6.48 2.524-9.48 7.366-9.89v-6.479c-8.183 0.341-14.049 5.319-14.049 16.301v11.526h-5.048v6.479h5.048v12.208h6.683v-12.208h7.366v-6.479z" fill="#fff"/></g><path d="m1243 376.68h6.683v-34.102h-6.683zm-0.75 8.797c0 2.321 1.773 4.093 4.092 4.093 2.25 0 4.025-1.772 4.025-4.093 0-2.317-1.775-4.091-4.025-4.091-2.319 0-4.092 1.774-4.092 4.091" fill="#fff"/><g transform="translate(1261.8 359.63)"><path d="m0 0c0-6.205 4.774-11.116 10.981-11.116 6.206 0 10.844 4.911 10.844 11.116 0 6.208-4.569 11.118-10.844 11.118s-10.981-4.91-10.981-11.118m28.51 0c0-9.752-7.844-17.596-17.597-17.596-9.754 0-17.596 7.844-17.596 17.596 0 9.753 7.842 17.597 17.596 17.597 9.753 0 17.597-7.844 17.597-17.597" fill="#fff"/></g><g transform="translate(1325.1 342.58)"><path d="m0 0h-6.684v17.937c0 6.958-3.001 10.232-8.32 10.232-5.321 0-8.321-3.274-8.321-10.232v-17.937h-6.685v17.937c0 11.459 6.276 16.71 15.006 16.71s15.004-5.251 15.004-16.71z" fill="#fff"/></g><g transform="translate(739.42 469.8)"><path d="m0 0s-24.774-32.867-55.333-32.867c-30.561 0-55.334 32.867-55.334 32.867s24.773 32.867 55.334 32.867c30.559 0 55.333-32.867 55.333-32.867" fill="#ffbe38"/></g><g transform="translate(703.64 469.8)"><path d="m0 0c0-10.8-8.754-19.554-19.554-19.554s-19.554 8.754-19.554 19.554 8.754 19.554 19.554 19.554 19.554-8.754 19.554-19.554"/></g><g transform="translate(680.76 482.91)"><path d="m0 0c0-4.48-3.632-8.113-8.113-8.113-4.48 0-8.113 3.633-8.113 8.113s3.633 8.112 8.113 8.112c4.481 0 8.113-3.632 8.113-8.112" fill="#fff"/></g><g transform="translate(873.96 469.8)"><path d="m0 0s-24.774-32.867-55.333-32.867c-30.561 0-55.334 32.867-55.334 32.867s24.773 32.867 55.334 32.867c30.559 0 55.333-32.867 55.333-32.867" fill="#ffbe38"/></g><g transform="translate(838.18 469.8)"><path d="m0 0c0-10.8-8.754-19.554-19.554-19.554s-19.554 8.754-19.554 19.554 8.754 19.554 19.554 19.554 19.554-8.754 19.554-19.554"/></g><g transform="translate(815.29 482.91)"><path d="m0 0c0-4.48-3.632-8.113-8.113-8.113-4.48 0-8.113 3.633-8.113 8.113s3.633 8.112 8.113 8.112c4.481 0 8.113-3.632 8.113-8.112" fill="#fff"/></g><g transform="translate(1020.4 663.88)"><path d="m0 0v24.792c0 12.796 6.98 20.795 24.792 20.795v41.589c-42.809 0-69.579-25.593-69.579-62.384v-24.792h-65.253c10.932-11.697 19.361-25.748 24.716-41.587h40.537v-207.94h44.787v207.94h38.307v41.587z" fill="#fff"/></g><g transform="translate(1058.7 730.26)"><path d="m0 0c0 11.484-6.051 20.794-13.515 20.794s-13.514-9.31-13.514-20.794 6.05-20.794 13.514-20.794 13.515 9.31 13.515 20.794" fill="#ffbe38"/></g><g transform="translate(820.45 667.88)"><path d="m0 0c-25.143 0-49.8-10.356-67.125-28.106-15.596 17.75-39.057 28.106-67.236 28.106-46.385 0-91.171-35.19-91.171-87.175v-166.35h44.786v166.35c0 26.393 19.195 45.587 44.787 45.587 26.394 0 44.787-19.194 44.787-45.587v-166.35h44.787v166.35c0 26.393 19.194 45.587 44.787 45.587 26.393 0 44.787-19.194 44.787-45.587v-166.35h44.787v166.35c0 51.985-35.991 87.175-87.976 87.175" fill="#fff"/></g><g transform="translate(1196 453.71)"><path d="m0 0c-46.683 0-84.662 37.979-84.662 84.662s37.979 84.663 84.662 84.663c46.684 0 84.663-37.98 84.663-84.663s-37.979-84.662-84.663-84.662m129.51 84.662c0 71.525-57.983 129.51-129.51 129.51s-129.51-57.982-129.51-129.51c0-71.524 57.983-129.51 129.51-129.51 32.379 0 61.957 11.91 84.663 31.552v-25.864h44.773s0.071 122.87 0.071 123.82" fill="#fff"/></g></g></g></svg>
