<svg width="9" height="13" viewBox="0 0 9 13" fill="none" xmlns="http://www.w3.org/2000/svg">
<path id="Vector" d="M3.41394 6.49999L7.99994 11.086C8.1821 11.2746 8.28289 11.5272 8.28061 11.7894C8.27833 12.0516 8.17316 12.3024 7.98776 12.4878C7.80235 12.6732 7.55154 12.7784 7.28934 12.7807C7.02714 12.7829 6.77454 12.6821 6.58594 12.5L0.585938 6.49999L6.58594 0.499991C6.67818 0.40448 6.78853 0.328298 6.91053 0.275889C7.03254 0.22348 7.16376 0.195894 7.29654 0.19474C7.42932 0.193586 7.561 0.218888 7.68389 0.269169C7.80679 0.31945 7.91844 0.393703 8.01233 0.487596C8.10623 0.581488 8.18048 0.69314 8.23076 0.816036C8.28104 0.938933 8.30634 1.07061 8.30519 1.20339C8.30403 1.33617 8.27645 1.46739 8.22404 1.5894C8.17163 1.7114 8.09545 1.82174 7.99994 1.91399L3.41394 6.49999Z" fill="white" fill-opacity="0.9"/>
</svg>
