<svg xmlns="http://www.w3.org/2000/svg" width="20" height="12" viewBox="0 0 20 12" fill="none">
    <path
        d="M19.2308 1.75H0.769231C0.348718 1.75 0 1.41 0 1C0 0.59 0.348718 0.25 0.769231 0.25H19.2308C19.6513 0.25 20 0.59 20 1C20 1.41 19.6513 1.75 19.2308 1.75Z"
        fill="white" fill-opacity="0.9" />
    <path
        d="M19.2308 6.75H0.769231C0.348718 6.75 0 6.41 0 6C0 5.59 0.348718 5.25 0.769231 5.25H19.2308C19.6513 5.25 20 5.59 20 6C20 6.41 19.6513 6.75 19.2308 6.75Z"
        fill="white" fill-opacity="0.9" />
    <path
        d="M19.2308 11.75H0.769231C0.348718 11.75 0 11.41 0 11C0 10.59 0.348718 10.25 0.769231 10.25H19.2308C19.6513 10.25 20 10.59 20 11C20 11.41 19.6513 11.75 19.2308 11.75Z"
        fill="white" fill-opacity="0.9" />
</svg>