<svg width="36" height="36" viewBox="0 0 36 36" fill="none" xmlns="http://www.w3.org/2000/svg">
<g clip-path="url(#clip0_789_5663)">
<path fill-rule="evenodd" clip-rule="evenodd" d="M18 34.5C27.1127 34.5 34.5 27.1127 34.5 18C34.5 8.8873 27.1127 1.5 18 1.5C8.8873 1.5 1.5 8.8873 1.5 18C1.5 27.1127 8.8873 34.5 18 34.5ZM18 36C27.9411 36 36 27.9411 36 18C36 8.05887 27.9411 0 18 0C8.05887 0 0 8.05887 0 18C0 27.9411 8.05887 36 18 36Z" fill="white" fill-opacity="0.9"/>
<path d="M27.0271 22.7896C26.8005 24.3759 26.0073 25.2824 24.6476 25.509C22.7214 25.9622 21.3617 24.9425 21.5883 22.9029C21.7016 21.6565 21.9282 20.4102 22.2682 19.1638C22.3815 18.4839 22.2682 18.144 21.7016 17.8041C21.1351 17.5774 20.6819 17.5775 20.2286 17.9174C19.6621 18.3706 19.3222 18.9372 19.0956 19.7303C18.7556 21.09 18.1891 22.4497 17.8492 23.9227C17.6225 24.7159 17.2826 25.3957 16.4895 25.2824C15.0165 25.1691 13.5435 25.3957 12.0705 25.509C10.5975 25.6223 9.69099 24.4892 9.8043 22.7896C9.91761 21.4299 10.2575 20.1836 10.5975 18.8239C10.7108 18.144 11.0507 17.4642 10.0309 17.1242C9.12447 16.8976 9.35107 16.2178 9.57769 15.5379C9.8043 14.8581 10.2575 14.5182 10.9374 14.6315C11.2773 14.6315 11.6172 14.6315 12.0705 14.6315C14.6765 14.6315 14.6765 14.6314 13.8834 17.2375C12.8636 20.7501 12.7503 21.09 13.2035 22.9029C15.2431 22.3364 17.1693 19.7303 17.056 17.8041C16.9427 17.1242 16.4895 17.2376 16.1495 17.1242C15.4697 16.8976 15.6963 16.2178 15.6963 15.7645C15.6963 15.198 16.0362 14.7448 16.7161 14.7448C16.9427 14.7448 17.2826 14.7448 17.5092 14.7448C19.3222 14.9714 21.1351 15.0847 23.0613 14.7448C24.8742 14.4048 25.7807 15.6512 25.894 17.4642C25.894 18.8238 25.3275 20.0702 25.1008 21.4299C24.9875 21.9965 24.5343 22.6763 25.2142 23.1295C25.7807 23.5828 26.1206 22.6763 26.6872 22.6763C26.4606 22.563 26.6872 22.6763 27.0271 22.7896Z" fill="white" fill-opacity="0.9"/>
<path d="M14.9032 11.4592C14.9032 12.2524 13.9967 13.1588 12.977 13.3855C11.9572 13.4988 11.1641 12.9322 11.1641 11.9125C11.1641 11.006 11.9572 9.87293 12.8637 9.75962C13.7701 9.64632 14.9032 10.5528 14.9032 11.4592Z" fill="white" fill-opacity="0.9"/>
</g>
<defs>
<clipPath id="clip0_789_5663">
<rect width="36" height="36" fill="white"/>
</clipPath>
</defs>
</svg>
